<svg id="SvgjsSvg1088" width="369.9346923828125" height="386.4915008544922" xmlns="http://www.w3.org/2000/svg" version="1.1" xmlns:xlink="http://www.w3.org/1999/xlink" xmlns:svgjs="http://svgjs.com/svgjs"><defs id="SvgjsDefs1089"><marker id="SvgjsMarker1112" markerWidth="16" markerHeight="12" refX="16" refY="6" viewBox="0 0 16 12" orient="auto" markerUnits="userSpaceOnUse"><path id="SvgjsPath1113" d="M0,2 L14,6 L0,11 L0,2" fill="#323232" stroke="#323232" stroke-width="2"></path></marker><marker id="SvgjsMarker1116" markerWidth="16" markerHeight="12" refX="16" refY="6" viewBox="0 0 16 12" orient="auto" markerUnits="userSpaceOnUse"><path id="SvgjsPath1117" d="M0,2 L14,6 L0,11 L0,2" fill="#323232" stroke="#323232" stroke-width="2"></path></marker><marker id="SvgjsMarker1136" markerWidth="16" markerHeight="12" refX="16" refY="6" viewBox="0 0 16 12" orient="auto" markerUnits="userSpaceOnUse"><path id="SvgjsPath1137" d="M0,2 L14,6 L0,11 L0,2" fill="#323232" stroke="#323232" stroke-width="2"></path></marker><marker id="SvgjsMarker1144" markerWidth="16" markerHeight="12" refX="16" refY="6" viewBox="0 0 16 12" orient="auto" markerUnits="userSpaceOnUse"><path id="SvgjsPath1145" d="M0,2 L14,6 L0,11 L0,2" fill="#323232" stroke="#323232" stroke-width="2"></path></marker><marker id="SvgjsMarker1160" markerWidth="16" markerHeight="12" refX="16" refY="6" viewBox="0 0 16 12" orient="auto" markerUnits="userSpaceOnUse"><path id="SvgjsPath1161" d="M0,2 L14,6 L0,11 L0,2" fill="#323232" stroke="#323232" stroke-width="2"></path></marker><marker id="SvgjsMarker1164" markerWidth="16" markerHeight="12" refX="16" refY="6" viewBox="0 0 16 12" orient="auto" markerUnits="userSpaceOnUse"><path id="SvgjsPath1165" d="M0,2 L14,6 L0,11 L0,2" fill="#323232" stroke="#323232" stroke-width="2"></path></marker><marker id="SvgjsMarker1168" markerWidth="16" markerHeight="12" refX="16" refY="6" viewBox="0 0 16 12" orient="auto" markerUnits="userSpaceOnUse"><path id="SvgjsPath1169" d="M0,2 L14,6 L0,11 L0,2" fill="#323232" stroke="#323232" stroke-width="2"></path></marker></defs><g id="SvgjsG1090" transform="translate(78.44036865234375,25.002853393554688)"><path id="SvgjsPath1091" d="M 16.666666666666668 0L 83.33333333333333 0C 105.55555555555556 0 105.55555555555556 50 83.33333333333333 50L 16.666666666666668 50C -5.555555555555556 50 -5.555555555555556 0 16.666666666666668 0Z" stroke="#323232" stroke-width="2" fill-opacity="1" fill="#ffffff"></path><g id="SvgjsG1092"><text id="SvgjsText1093" font-family="微软雅黑" text-anchor="middle" font-size="13px" width="65" fill="#323232" font-weight="400" align="middle" anchor="middle" family="微软雅黑" size="13px" weight="400" font-style="" y="7.55" transform="rotate(0)"><tspan id="SvgjsTspan1094" dy="16" x="50"><tspan id="SvgjsTspan1095" style="text-decoration:;">输入超级块</tspan></tspan><tspan id="SvgjsTspan1096" dy="16" x="50"><tspan id="SvgjsTspan1097" style="text-decoration:;">所有划分块</tspan></tspan></text></g></g><g id="SvgjsG1098" transform="translate(66.00286865234375,109.00285339355469)"><path id="SvgjsPath1099" d="M 0 27L 62.4375 0L 124.875 27L 62.4375 54L 0 27Z" stroke="#323232" stroke-width="2" fill-opacity="1" fill="#ffffff"></path><g id="SvgjsG1100"><text id="SvgjsText1101" font-family="微软雅黑" text-anchor="middle" font-size="13px" width="83" fill="#323232" font-weight="400" align="middle" anchor="middle" family="微软雅黑" size="13px" weight="400" font-style="" y="17.55" transform="rotate(0)"><tspan id="SvgjsTspan1102" dy="16" x="62.5"><tspan id="SvgjsTspan1103" style="text-decoration:;">bsize &gt;= 16x16 </tspan></tspan></text></g></g><g id="SvgjsG1104" transform="translate(237.44036865234375,311.5028533935547)"><path id="SvgjsPath1105" d="M 16.666666666666668 0L 83.33333333333333 0C 105.55555555555556 0 105.55555555555556 50 83.33333333333333 50L 16.666666666666668 50C -5.555555555555556 50 -5.555555555555556 0 16.666666666666668 0Z" stroke="#323232" stroke-width="2" fill-opacity="1" fill="#ffffff"></path><g id="SvgjsG1106"><text id="SvgjsText1107" font-family="微软雅黑" text-anchor="middle" font-size="13px" width="52" fill="#323232" font-weight="400" align="middle" anchor="middle" family="微软雅黑" size="13px" weight="400" font-style="" y="15.55" transform="rotate(0)"><tspan id="SvgjsTspan1108" dy="16" x="50"><tspan id="SvgjsTspan1109" style="text-decoration:;">划分结束</tspan></tspan></text></g></g><g id="SvgjsG1110"><path id="SvgjsPath1111" d="M128.44036865234375 75.00285339355469L128.44036865234375 92.00285339355469L128.44036865234375 92.00285339355469L128.44036865234375 109.00285339355469" stroke="#323232" stroke-width="2" fill="none" marker-end="url(#SvgjsMarker1112)"></path></g><g id="SvgjsG1114"><path id="SvgjsPath1115" d="M128.44036865234375 163.0028533935547L128.44036865234375 186.5028533935547L128.44036865234375 186.5028533935547L128.44036865234375 210.0028533935547" stroke="#323232" stroke-width="2" fill="none" marker-end="url(#SvgjsMarker1116)"></path><rect id="SvgjsRect1118" width="25" height="15" x="115.94036865234375" y="170.95285339355468" fill="#ffffff"></rect><text id="SvgjsText1119" font-family="微软雅黑" text-anchor="middle" font-size="13px" width="25" fill="#323232" font-weight="400" align="top" anchor="middle" family="微软雅黑" size="13px" weight="400" font-style="" y="169.0028533935547" transform="rotate(0)"><tspan id="SvgjsTspan1120" dy="16" x="128.44036865234375"><tspan id="SvgjsTspan1121" style="text-decoration:;">YES</tspan></tspan></text></g><g id="SvgjsG1122" transform="translate(66.19036865234375,210.0028533935547)"><path id="SvgjsPath1123" d="M 0 27.5L 62.25 0L 124.5 27.5L 62.25 55L 0 27.5Z" stroke="#323232" stroke-width="2" fill-opacity="1" fill="#ffffff"></path><g id="SvgjsG1124"><text id="SvgjsText1125" font-family="微软雅黑" text-anchor="middle" font-size="13px" width="72" fill="#323232" font-weight="400" align="middle" anchor="middle" family="微软雅黑" size="13px" weight="400" font-style="" y="18.05" transform="rotate(0)"><tspan id="SvgjsTspan1126" dy="16" x="62.5"><tspan id="SvgjsTspan1127" style="text-decoration:;">PI &lt; T_bsize?</tspan></tspan></text></g></g><g id="SvgjsG1128" transform="translate(78.44036865234375,315.0028533935547)"><path id="SvgjsPath1129" d="M 0 0L 100 0L 100 43L 0 43Z" stroke="#323232" stroke-width="2" fill-opacity="1" fill="#ffffff"></path><g id="SvgjsG1130"><text id="SvgjsText1131" font-family="微软雅黑" text-anchor="middle" font-size="13px" width="27" fill="#323232" font-weight="400" align="middle" anchor="middle" family="微软雅黑" size="13px" weight="400" font-style="" y="12.05" transform="rotate(0)"><tspan id="SvgjsTspan1132" dy="16" x="50"><tspan id="SvgjsTspan1133" style="text-decoration:;">RDO</tspan></tspan></text></g></g><g id="SvgjsG1134"><path id="SvgjsPath1135" d="M66.00286865234375 136.0028533935547L25.00286865234375 136.0028533935547L25.00286865234375 336.5028533935547L78.44036865234375 336.5028533935547" stroke="#323232" stroke-width="2" fill="none" marker-end="url(#SvgjsMarker1136)"></path><rect id="SvgjsRect1138" width="19" height="15" x="15.50286865234375" y="218.7278533935547" fill="#ffffff"></rect><text id="SvgjsText1139" font-family="微软雅黑" text-anchor="middle" font-size="13px" width="19" fill="#323232" font-weight="400" align="top" anchor="middle" family="微软雅黑" size="13px" weight="400" font-style="" y="216.77785339355472" transform="rotate(0)"><tspan id="SvgjsTspan1140" dy="16" x="25.00286865234375"><tspan id="SvgjsTspan1141" style="text-decoration:;">NO</tspan></tspan></text></g><g id="SvgjsG1142"><path id="SvgjsPath1143" d="M128.44036865234375 265.0028533935547L128.44036865234375 290.0028533935547L128.44036865234375 290.0028533935547L128.44036865234375 315.0028533935547" stroke="#323232" stroke-width="2" fill="none" marker-end="url(#SvgjsMarker1144)"></path><rect id="SvgjsRect1146" width="19" height="15" x="118.94036865234375" y="272.7528533935547" fill="#ffffff"></rect><text id="SvgjsText1147" font-family="微软雅黑" text-anchor="middle" font-size="13px" width="19" fill="#323232" font-weight="400" align="top" anchor="middle" family="微软雅黑" size="13px" weight="400" font-style="" y="270.8028533935547" transform="rotate(0)"><tspan id="SvgjsTspan1148" dy="16" x="128.44036865234375"><tspan id="SvgjsTspan1149" style="text-decoration:;">NO</tspan></tspan></text></g><g id="SvgjsG1150" transform="translate(228.94036865234375,212.2528533935547)"><path id="SvgjsPath1151" d="M 0 0L 117 0L 117 50.5L 0 50.5Z" stroke="#323232" stroke-width="2" fill-opacity="1" fill="#ffffff"></path><g id="SvgjsG1152"><text id="SvgjsText1153" font-family="微软雅黑" text-anchor="middle" font-size="13px" width="91" fill="#323232" font-weight="400" align="middle" anchor="middle" family="微软雅黑" size="13px" weight="400" font-style="" y="7.8" transform="rotate(0)"><tspan id="SvgjsTspan1154" dy="16" x="58.5"><tspan id="SvgjsTspan1155" style="text-decoration:;">跳过当前块下一</tspan></tspan><tspan id="SvgjsTspan1156" dy="16" x="58.5"><tspan id="SvgjsTspan1157" style="text-decoration:;">深度划分</tspan></tspan></text></g></g><g id="SvgjsG1158"><path id="SvgjsPath1159" d="M287.44036865234375 212.2528533935547L287.44036865234375 136.0028533935547L190.87786865234375 136.0028533935547" stroke="#323232" stroke-width="2" fill="none" marker-end="url(#SvgjsMarker1160)"></path></g><g id="SvgjsG1162"><path id="SvgjsPath1163" d="M190.69036865234375 237.5028533935547L209.81536865234375 237.5028533935547L209.81536865234375 237.5028533935547L228.94036865234375 237.5028533935547" stroke="#323232" stroke-width="2" fill="none" marker-end="url(#SvgjsMarker1164)"></path></g><g id="SvgjsG1166"><path id="SvgjsPath1167" d="M178.44036865234375 336.5028533935547L207.94036865234375 336.5028533935547L207.94036865234375 336.5028533935547L237.44036865234375 336.5028533935547" stroke="#323232" stroke-width="2" fill="none" marker-end="url(#SvgjsMarker1168)"></path></g></svg>